<mxfile host="Electron" agent="Mozilla/5.0 (Windows NT 10.0; Win64; x64) AppleWebKit/537.36 (KHTML, like Gecko) draw.io/26.2.15 Chrome/134.0.6998.205 Electron/35.2.1 Safari/537.36" version="26.2.15" pages="2">
  <diagram id="dtjI8S5TkRmUZXlrrpdS" name="Карта IT-ландшафта">
    <mxGraphModel dx="2052" dy="1195" grid="1" gridSize="10" guides="1" tooltips="1" connect="1" arrows="1" fold="1" page="1" pageScale="1" pageWidth="827" pageHeight="1169" math="0" shadow="0">
      <root>
        <mxCell id="0" />
        <mxCell id="1" parent="0" />
        <mxCell id="5rcNR-AjTmu8BWs0iqeh-1" value="Продажи в сети отделений" style="rounded=0;whiteSpace=wrap;html=1;fillColor=#EFEFEF;strokeColor=#FCFCFC;fontFamily=Verdana;fontSize=14;" vertex="1" parent="1">
          <mxGeometry x="120" y="40" width="120" height="60" as="geometry" />
        </mxCell>
        <mxCell id="5rcNR-AjTmu8BWs0iqeh-2" value="Продажи через кол-центр" style="rounded=0;whiteSpace=wrap;html=1;fillColor=#EFEFEF;strokeColor=#FCFCFC;fontFamily=Verdana;fontSize=14;" vertex="1" parent="1">
          <mxGeometry x="240" y="40" width="120" height="60" as="geometry" />
        </mxCell>
        <mxCell id="5rcNR-AjTmu8BWs0iqeh-3" value="Digital-оповещения клиентов" style="rounded=0;whiteSpace=wrap;html=1;fillColor=#EFEFEF;strokeColor=#FCFCFC;fontFamily=Verdana;fontSize=14;" vertex="1" parent="1">
          <mxGeometry x="360" y="40" width="120" height="60" as="geometry" />
        </mxCell>
        <mxCell id="5rcNR-AjTmu8BWs0iqeh-4" value="Обслуживание депозитных процессов" style="rounded=0;whiteSpace=wrap;html=1;fillColor=#EFEFEF;strokeColor=#FCFCFC;fontFamily=Verdana;fontSize=14;" vertex="1" parent="1">
          <mxGeometry x="480" y="40" width="120" height="60" as="geometry" />
        </mxCell>
        <mxCell id="5rcNR-AjTmu8BWs0iqeh-5" value="Обслуживание кредитных процессов" style="rounded=0;whiteSpace=wrap;html=1;fillColor=#EFEFEF;strokeColor=#FCFCFC;fontFamily=Verdana;fontSize=14;" vertex="1" parent="1">
          <mxGeometry x="600" y="40" width="120" height="60" as="geometry" />
        </mxCell>
        <mxCell id="5rcNR-AjTmu8BWs0iqeh-6" value="Управление договорами" style="rounded=0;whiteSpace=wrap;html=1;fillColor=#EFEFEF;strokeColor=#FCFCFC;fontFamily=Verdana;fontSize=14;" vertex="1" parent="1">
          <mxGeometry x="720" y="40" width="120" height="60" as="geometry" />
        </mxCell>
        <mxCell id="5rcNR-AjTmu8BWs0iqeh-7" value="Управление обслуживанием в сети отделений" style="rounded=0;whiteSpace=wrap;html=1;fillColor=#EFEFEF;strokeColor=#FCFCFC;fontFamily=Verdana;fontSize=14;" vertex="1" parent="1">
          <mxGeometry y="100" width="120" height="88" as="geometry" />
        </mxCell>
        <mxCell id="5rcNR-AjTmu8BWs0iqeh-8" value="Управление обслуживанием кредитных продуктов" style="rounded=0;whiteSpace=wrap;html=1;fillColor=#EFEFEF;strokeColor=#FCFCFC;fontFamily=Verdana;fontSize=14;" vertex="1" parent="1">
          <mxGeometry y="188" width="120" height="87" as="geometry" />
        </mxCell>
        <mxCell id="5rcNR-AjTmu8BWs0iqeh-9" value="Управление обслуживанием депозитных продуктов" style="rounded=0;whiteSpace=wrap;html=1;fillColor=#EFEFEF;strokeColor=#FCFCFC;fontFamily=Verdana;fontSize=14;" vertex="1" parent="1">
          <mxGeometry y="275.5" width="120" height="94.5" as="geometry" />
        </mxCell>
        <mxCell id="5rcNR-AjTmu8BWs0iqeh-10" value="Управление IT" style="rounded=0;whiteSpace=wrap;html=1;fillColor=#EFEFEF;strokeColor=#FCFCFC;fontFamily=Verdana;fontSize=14;" vertex="1" parent="1">
          <mxGeometry y="370" width="120" height="60" as="geometry" />
        </mxCell>
        <mxCell id="5rcNR-AjTmu8BWs0iqeh-11" value="Кол-центр банка &quot;Стандарт&quot;" style="rounded=0;whiteSpace=wrap;html=1;fillColor=#EFEFEF;strokeColor=#FCFCFC;fontFamily=Verdana;fontSize=14;" vertex="1" parent="1">
          <mxGeometry y="430" width="120" height="60" as="geometry" />
        </mxCell>
        <mxCell id="5rcNR-AjTmu8BWs0iqeh-12" value="Команда цифровой трансформации розничного бизнеса" style="rounded=0;whiteSpace=wrap;html=1;fillColor=#EFEFEF;strokeColor=#FCFCFC;fontFamily=Verdana;fontSize=14;" vertex="1" parent="1">
          <mxGeometry y="490" width="120" height="97" as="geometry" />
        </mxCell>
        <mxCell id="5rcNR-AjTmu8BWs0iqeh-13" value="" style="endArrow=none;html=1;rounded=0;entryX=0;entryY=1;entryDx=0;entryDy=0;strokeColor=#D9D9D9;fontFamily=Verdana;fontSize=14;" edge="1" parent="1" target="5rcNR-AjTmu8BWs0iqeh-2">
          <mxGeometry width="50" height="50" relative="1" as="geometry">
            <mxPoint x="240" y="586" as="sourcePoint" />
            <mxPoint x="240" y="110" as="targetPoint" />
          </mxGeometry>
        </mxCell>
        <mxCell id="5rcNR-AjTmu8BWs0iqeh-14" value="" style="endArrow=none;html=1;rounded=0;entryX=0;entryY=1;entryDx=0;entryDy=0;strokeColor=#D9D9D9;fontFamily=Verdana;fontSize=14;" edge="1" parent="1" target="5rcNR-AjTmu8BWs0iqeh-3">
          <mxGeometry width="50" height="50" relative="1" as="geometry">
            <mxPoint x="360" y="587" as="sourcePoint" />
            <mxPoint x="360" y="110" as="targetPoint" />
          </mxGeometry>
        </mxCell>
        <mxCell id="5rcNR-AjTmu8BWs0iqeh-15" value="" style="endArrow=none;html=1;rounded=0;entryX=0;entryY=1;entryDx=0;entryDy=0;strokeColor=#D9D9D9;fontFamily=Verdana;fontSize=14;" edge="1" parent="1">
          <mxGeometry width="50" height="50" relative="1" as="geometry">
            <mxPoint x="480" y="587" as="sourcePoint" />
            <mxPoint x="480" y="100" as="targetPoint" />
          </mxGeometry>
        </mxCell>
        <mxCell id="5rcNR-AjTmu8BWs0iqeh-16" value="" style="endArrow=none;html=1;rounded=0;entryX=0;entryY=1;entryDx=0;entryDy=0;strokeColor=#D9D9D9;fontFamily=Verdana;fontSize=14;" edge="1" parent="1">
          <mxGeometry width="50" height="50" relative="1" as="geometry">
            <mxPoint x="600" y="586" as="sourcePoint" />
            <mxPoint x="600" y="100" as="targetPoint" />
          </mxGeometry>
        </mxCell>
        <mxCell id="5rcNR-AjTmu8BWs0iqeh-17" value="" style="endArrow=none;html=1;rounded=0;entryX=0;entryY=1;entryDx=0;entryDy=0;strokeColor=#D9D9D9;fontFamily=Verdana;fontSize=14;" edge="1" parent="1">
          <mxGeometry width="50" height="50" relative="1" as="geometry">
            <mxPoint x="720" y="587" as="sourcePoint" />
            <mxPoint x="720" y="100" as="targetPoint" />
          </mxGeometry>
        </mxCell>
        <mxCell id="5rcNR-AjTmu8BWs0iqeh-18" value="" style="endArrow=none;html=1;rounded=0;entryX=0;entryY=1;entryDx=0;entryDy=0;strokeColor=#D9D9D9;fontFamily=Verdana;fontSize=14;" edge="1" parent="1">
          <mxGeometry width="50" height="50" relative="1" as="geometry">
            <mxPoint x="840" y="587" as="sourcePoint" />
            <mxPoint x="840" y="100" as="targetPoint" />
          </mxGeometry>
        </mxCell>
        <mxCell id="5rcNR-AjTmu8BWs0iqeh-19" value="" style="endArrow=none;html=1;rounded=0;entryX=1;entryY=0;entryDx=0;entryDy=0;strokeColor=#D9D9D9;fontFamily=Verdana;fontSize=14;" edge="1" parent="1" target="5rcNR-AjTmu8BWs0iqeh-8">
          <mxGeometry width="50" height="50" relative="1" as="geometry">
            <mxPoint x="840" y="188" as="sourcePoint" />
            <mxPoint x="290" y="160" as="targetPoint" />
          </mxGeometry>
        </mxCell>
        <mxCell id="5rcNR-AjTmu8BWs0iqeh-20" value="" style="endArrow=none;html=1;rounded=0;entryX=1;entryY=0;entryDx=0;entryDy=0;strokeColor=#D9D9D9;fontFamily=Verdana;fontSize=14;" edge="1" parent="1">
          <mxGeometry width="50" height="50" relative="1" as="geometry">
            <mxPoint x="838.25" y="275.5" as="sourcePoint" />
            <mxPoint x="118.25" y="275.5" as="targetPoint" />
          </mxGeometry>
        </mxCell>
        <mxCell id="5rcNR-AjTmu8BWs0iqeh-21" value="" style="endArrow=none;html=1;rounded=0;entryX=1;entryY=0;entryDx=0;entryDy=0;strokeColor=#D9D9D9;fontFamily=Verdana;fontSize=14;" edge="1" parent="1">
          <mxGeometry width="50" height="50" relative="1" as="geometry">
            <mxPoint x="840" y="368" as="sourcePoint" />
            <mxPoint x="120" y="368" as="targetPoint" />
          </mxGeometry>
        </mxCell>
        <mxCell id="5rcNR-AjTmu8BWs0iqeh-22" value="" style="endArrow=none;html=1;rounded=0;entryX=1;entryY=0;entryDx=0;entryDy=0;strokeColor=#D9D9D9;fontFamily=Verdana;fontSize=14;" edge="1" parent="1">
          <mxGeometry width="50" height="50" relative="1" as="geometry">
            <mxPoint x="839" y="430" as="sourcePoint" />
            <mxPoint x="119" y="430" as="targetPoint" />
          </mxGeometry>
        </mxCell>
        <mxCell id="5rcNR-AjTmu8BWs0iqeh-23" value="" style="endArrow=none;html=1;rounded=0;entryX=1;entryY=0;entryDx=0;entryDy=0;strokeColor=#D9D9D9;fontFamily=Verdana;fontSize=14;" edge="1" parent="1">
          <mxGeometry width="50" height="50" relative="1" as="geometry">
            <mxPoint x="840" y="490" as="sourcePoint" />
            <mxPoint x="120" y="490" as="targetPoint" />
          </mxGeometry>
        </mxCell>
        <mxCell id="5rcNR-AjTmu8BWs0iqeh-24" value="" style="endArrow=none;html=1;rounded=0;dashed=1;entryX=1;entryY=0;entryDx=0;entryDy=0;strokeColor=#D9D9D9;align=center;verticalAlign=middle;fontFamily=Verdana;fontSize=14;fontColor=default;labelBackgroundColor=default;" edge="1" parent="1">
          <mxGeometry width="50" height="50" relative="1" as="geometry">
            <mxPoint x="840" y="587" as="sourcePoint" />
            <mxPoint x="120" y="587" as="targetPoint" />
          </mxGeometry>
        </mxCell>
        <mxCell id="5rcNR-AjTmu8BWs0iqeh-25" value="&lt;div&gt;АБС&lt;/div&gt;" style="rounded=1;whiteSpace=wrap;html=1;strokeColor=#82b366;fillColor=#65E851;fontFamily=Verdana;glass=0;shadow=0;fontSize=14;fillOpacity=50;" vertex="1" parent="1">
          <mxGeometry x="150" y="100" width="60" height="260" as="geometry" />
        </mxCell>
        <mxCell id="5rcNR-AjTmu8BWs0iqeh-26" value="Сайт" style="rounded=1;whiteSpace=wrap;html=1;strokeColor=#006EAF;fillColor=#6600CC;fontFamily=Verdana;glass=0;shadow=0;fontSize=14;fontColor=#ffffff;fillOpacity=70;" vertex="1" parent="1">
          <mxGeometry x="490" y="230" width="220" height="130" as="geometry" />
        </mxCell>
        <mxCell id="5rcNR-AjTmu8BWs0iqeh-27" value="Интернет-банк" style="rounded=1;whiteSpace=wrap;html=1;strokeColor=#d79b00;fillColor=#56FF5E;fontFamily=Verdana;glass=0;shadow=0;fontSize=14;fillOpacity=70;" vertex="1" parent="1">
          <mxGeometry x="490" y="190" width="340" height="40" as="geometry" />
        </mxCell>
        <mxCell id="5rcNR-AjTmu8BWs0iqeh-28" value="Интернет-банк" style="rounded=1;whiteSpace=wrap;html=1;strokeColor=#d79b00;fillColor=#99FF33;fontFamily=Verdana;glass=0;shadow=0;fontSize=14;align=right;fillOpacity=50;" vertex="1" parent="1">
          <mxGeometry x="240" y="279" width="587" height="83" as="geometry" />
        </mxCell>
        <mxCell id="5rcNR-AjTmu8BWs0iqeh-29" value="СМС-шлюз" style="rounded=1;whiteSpace=wrap;html=1;strokeColor=#d6b656;fillColor=#FF3399;fontFamily=Verdana;glass=0;shadow=0;fontSize=14;fillOpacity=50;" vertex="1" parent="1">
          <mxGeometry x="245" y="286" width="222" height="74" as="geometry" />
        </mxCell>
        <mxCell id="5rcNR-AjTmu8BWs0iqeh-30" value="Система кол-центра" style="rounded=1;whiteSpace=wrap;html=1;strokeColor=#BD7000;fillColor=#f0a30a;fontFamily=Verdana;fontSize=14;glass=0;shadow=0;fontColor=#000000;fillOpacity=50;" vertex="1" parent="1">
          <mxGeometry x="245" y="370" width="110" height="56" as="geometry" />
        </mxCell>
        <mxCell id="5rcNR-AjTmu8BWs0iqeh-31" value="&lt;font&gt;Система партнерского кол-центра&lt;/font&gt;" style="rounded=1;whiteSpace=wrap;html=1;strokeColor=#BD7000;fillColor=#f0a30a;fontFamily=Verdana;glass=0;shadow=0;fontSize=14;fontColor=#000000;fillOpacity=50;" vertex="1" parent="1">
          <mxGeometry x="245" y="433" width="110" height="53" as="geometry" />
        </mxCell>
        <mxCell id="5rcNR-AjTmu8BWs0iqeh-32" value="Телеком-оператор" style="rounded=1;whiteSpace=wrap;html=1;strokeColor=#2D7600;fillColor=#60a917;fontFamily=Verdana;align=center;verticalAlign=middle;fontSize=14;glass=0;shadow=0;fontColor=#000000;fillOpacity=50;" vertex="1" parent="1">
          <mxGeometry x="363" y="371" width="111" height="56" as="geometry" />
        </mxCell>
        <mxCell id="aJYmBwhL9IKM6cK4uWra-1" style="edgeStyle=orthogonalEdgeStyle;rounded=0;orthogonalLoop=1;jettySize=auto;html=1;exitX=0.5;exitY=1;exitDx=0;exitDy=0;" edge="1" parent="1" source="5rcNR-AjTmu8BWs0iqeh-25" target="5rcNR-AjTmu8BWs0iqeh-25">
          <mxGeometry relative="1" as="geometry" />
        </mxCell>
        <mxCell id="aJYmBwhL9IKM6cK4uWra-2" value="&lt;div&gt;АБС&lt;/div&gt;" style="rounded=1;whiteSpace=wrap;html=1;strokeColor=#82b366;fillColor=#E1E84E;fontFamily=Verdana;glass=0;shadow=0;fontSize=14;fillOpacity=50;" vertex="1" parent="1">
          <mxGeometry x="490" y="100" width="350" height="256.5" as="geometry" />
        </mxCell>
      </root>
    </mxGraphModel>
  </diagram>
  <diagram id="-yHcmSmgWqr9ppSnY_Ed" name="Схема интеграции приложений с пользователями">
    <mxGraphModel dx="2052" dy="1195" grid="1" gridSize="10" guides="1" tooltips="1" connect="1" arrows="1" fold="1" page="1" pageScale="1" pageWidth="827" pageHeight="1169" math="0" shadow="0">
      <root>
        <mxCell id="0" />
        <mxCell id="1" parent="0" />
        <mxCell id="fFrQpYMXS9mIhHFyNszC-3" style="edgeStyle=orthogonalEdgeStyle;rounded=0;orthogonalLoop=1;jettySize=auto;html=1;" edge="1" parent="1" source="fFrQpYMXS9mIhHFyNszC-5" target="fFrQpYMXS9mIhHFyNszC-46">
          <mxGeometry relative="1" as="geometry">
            <Array as="points">
              <mxPoint x="115" y="91" />
              <mxPoint x="327" y="91" />
            </Array>
          </mxGeometry>
        </mxCell>
        <mxCell id="fFrQpYMXS9mIhHFyNszC-4" value="Запрашивает расчет&lt;div&gt;ставки депозита&lt;/div&gt;" style="edgeLabel;html=1;align=center;verticalAlign=middle;resizable=0;points=[];" vertex="1" connectable="0" parent="fFrQpYMXS9mIhHFyNszC-3">
          <mxGeometry x="-0.0468" y="2" relative="1" as="geometry">
            <mxPoint as="offset" />
          </mxGeometry>
        </mxCell>
        <mxCell id="fFrQpYMXS9mIhHFyNszC-5" value="Фронт-офис" style="shape=image;verticalLabelPosition=bottom;labelBackgroundColor=default;verticalAlign=top;aspect=fixed;imageAspect=0;image=data:image/png,iVBORw0KGgoAAAANSUhEUgAAAGAAAABgCAYAAADimHc4AAAACXBIWXMAAAsTAAALEwEAmpwYAAAQAElEQVR4nO1ba3RUVZa+09O9Zjm2IlC3CBBJVeUd8iStNIoyiEKIINi2gyLviPPDpd3ar5lpZzGzWkcRHwwNtgg2khAIAQlJqvKgKqlK5GEgg63TC8kDAiGBEJJUVSCIgO5Z+5xz655761YeJHQlVfWt9a2VqlTdx/fts/c+59wShBBCCCGEEEIIIYQQQgghhBBCCGEYwvrC6FH2LP0S+yrdRkeW7nNHlq7JkSU6HVki2FdxXClCJXKFCJXLKSuWMS4VwYZ8TnfN3/czYmBbNmaiI0uXbc/Sfet4XgQvZlHyBtglA5gJFctVBiwRz/v7vkYE7Ct1v3SsEm/wgldx7M0EfhR4DFjmMcDu73sb9nCs1G2QhPUIv9qbmiZojQJlGvqDv+9v2KLqBd2Umt/od/kU/wVG6XVvo8CHAdZn9dP8fZ/DDtUrxyQ4XhArJBEVBnDiVzPyJvCjwKcBzATrYhFKnhTrSubrk/19z8MG9izdK47nddf4KPZpwL8wciYMxIDSnxMDwLxQd6V4gThHCGbkPy38vf158UNfKWSoR0D5Iio+0rJQBMsT4reW+frHhGCFI0u3zRPpGl2MVw2QhNcyoI8acGCRCKU/Ywag+MgFIpjn6y6bM8fEC8EGxyrdv3uJpu5g8G+p/dTogHwWYe4YJPKfEaH0KZUBC5gBT4hgnqf7sjZd+JEQLLAvF1Ptq8SbmsKrU8cKVhM0TOhtHoDfsz4nQtnPad5HA0rUBqD4yPkiFD8+9ldCsKByhe6wJLido0d4jQkUto/S/zxCZ3FcxSKetJkilP2zCGVPMwOk6GcGWHgD5lMWzdO15z8dfocQ6LAu1U8jUc5zBeXBF8PgzGYTOIsTwFWaCBd2xsPXb5vg0IvjpRksIUY2tpPIA88yPkOLLLIqKwz+7w8maNmWAF2FieAuSwRn0WRoWG/COYC3AfNwBIhQNHfsYiHQUbFc/FAR6Ssoj7wcBs7CeLh8IBGuWJPhii0VeiqmQE/lT+Bq5X3QUZAGpz+Ih+OvGeDwSxPBvioMbEv0hPaVYVDz6iT4el0MXNqbClft95Pv4HfxGHgsPCYeuz0/FqzPjpPzP2dAcaaYJwQ6KpaLx6VVykpGR5YeOgpi4fKBJLhiTYErtjToqUiHnsr7qJiOn8I3VdPgm6oH4JvqBwmvVU9XkLxfhXyAfBa/g9/FY+Cx8Jh4bDzHuY+jWAfE8r80AjJ1jUKgw7ZUdJKczuX4+vUGFvkp0MPEv2q/D646pjLhUXQm9mcPwbXPHvbBh5gZ0zkjppJjEUM9JiRC7W/C5ej3pCDxqhDosC0Vr3sK6zKc1Y6D7rLJcuRXpnNRTyP+WrUk+gz49iDynygPzaSUXh+cQT5DPlv9EBsVD3CjQRoJydCeH09rgJx+oDBTDPx9AusS0YmdisSv3zZwOV8pvhzxMzjBH4HryMOzlDz0CPmfZIhiRHhMkNIRrQlHXproiX40oGiueFEIdFiX6M5I3YxtqQgdBQmegouFUy2+J+I9oj8K1488RniDUXpN/nd4FjXCMyJUJpCaQAtz4x+jqPgk/+uhMENfJwQ6rEvEasmAIy+PJ5FI8j52O3aW8zHtSOIfmskingp/48hsuPH5HMYMRvb6yGzZCM9ooCbQdDSNnIN0R7Y0cJckQclCPYt+PY4AqxDoOLBYt5308c+J8Nc3DYrU8w2JfinnY+TL4svCZ8DNmrlwsyZTxbmyGWiEZMLBmbQuYE3AYi7VA5aKjrwcTqKfGDBH3CoEOqyLda9Jk6jW7DhWeKXol1LPwySFqMX3CH/0cfju6Dz47hjj0XnkPdkItQmsJkipiI0CPHfdukgW/XrYP0f/mhDosD2rX0gMeE4EtyVJlftVqefwLJrnJfFReCL6fPju2BMq4nuSEZIJj7GawKWiqgcVtaBt12RqQIYeimaLTwmBjopFYiQuHVStDlOmn6pp2tH/+Wy4WZMBN49myuLXPgHf1y5QEN+TTcCRgOnIexTQOcI0OQ1ZU6HkyXFYgGH/nLGxQqBjzRrhB+XP6C7X/i6cGqCVfryiP5OlHE78/12oJG8CpqSaTK9RoJ2GUuGz1eFQOFu8ihtEQjCgfJFYc2KtSc7/DskAPv1IuV+KfrX4T8L3x39GiX+rTMDvkKLMaoEnDZFijC2pXAe++L0BCufojwmBjub88DsaciPWVv1Cd/nUxii5/fTK/3LxlXO/ZIAsPhx/itBjgsIArAW8AY941QGpHa1/LxpsWfrLeG14jUKgomm3aUtjbgQc/g8RWj6JvTUDuOiHL54i5EeB0oC5/TKgeUssVP9WD3htTXmmj4RARVOe6Sre5NG39GQtpqdfBmSoRsACbgRQ9m8E8ClIacDFvAT4/HWPAT1CoOLMblMT3uQXm/TgLknsowbMUtUALMKqGqAgqwGkJZ2nqgGzeq0BbksiHN9IDcBrFAIVTbtNe/Emv9yip2v/NuyC0jUmYdSA615zgP51QfxcgC5NzGIzYnUXRGfDeC14TWwE7BECFU15xn/zMqBCWoaQ1oC0ZsEZXq3od4o5gFYLKqcf5TwAlyO4eYANDUiUDcg3/asQqDidZ3hYNoBtwKhnwqo0pBwFnAmK2TB7TZYkMr2jXyP/e1ZF2QaNZABeoxCoABD+rjF30jt/+UjffbkcN2GSe10LkouxZEIGtxbE1oMIH+fWgqQFOboq+m0fa0Fkr7h8MuA1NeZGrMNrFIIB3WUJLA2xUUC2IPnVUHUqeky1GsqviM5VrYZyS9Ie8bnot0t7AnSPGK9FCDZ0l8WB9yi4X7EfIO+Esc0Yz34Avycg7wXI+wHypgzdouT3A+73in68FiHY4C6J/b67nI0CVgvIUxCsJfU2QdobUO6KqXfD5I0YtfhS66nM/XgNeC1CsMFdEt0ljQJFR6Q2wZOONPaFD6Hg3vvBdMar3pifygqv3HpK0e+yRHUIwQaXJbKquzQGusv4h7HSVCbQR1L4x1EUT0V4kQnv2QdmaUchvpR6Esm53aUx4LZEBd9vxpxmw6/dJdHQXRpLiqCmCdgZ4fzAMxrw2aCHfDwbhKJLzwWxB7RIv68hPqaesgRybndJFDiLjK8KwQb3vgljXZbIHo8JpB5oPJZIHlPhjOCejiObK5LgkuiS8OSBrPs1H0/Ec1Hxo8FlNl12mSeNFoIRLrNhjdsSSYToLo3TMEF6RJEZgdGMrSrhNBV/ylpMXvh0cgxv8ePIOfHcLrPx90KwAkqi/sFpNhyVTcB0FC8XZvK0nNII6WFdMm8gpiDvkx/G9RI+hSu48Z7Ix3M6zYYavAYhmNFVZJrkNBsuuRQmYHdERwM1go4IUh9IjZiiTczxNj7ik+gxMOrL4uS0g+IXGzudpREGf9//sICryDDbWWy45rKYSFF0l8RwoyHBMyI8ZuDI0KQkOo14KrwU9THk2HgOPJezyDTL3/c9rOA0R8x0mQ3dLrORpAeSJrBNZSNCYUY5jgwV8T1edCnisc2U8z24io1X0HB/3++wRLfF9KDLbHQSocwmZkQUS028GdQQJdn7+BlJdPwuEd5ExTcbnW5z5AP+vs9hDWdphMFZbDjIBKO0KM2QiUJLYkcrRbd4RCfEgusqjIzy9/2NCIB9xg/P5XMGKGii4mpRjnQFW/YYAWrTg+dnqEOBE9uN0LDDCBf2+TKib14sMEJDrhHwWP6+nxGHE9upcMjGXCO07cM00rfoTiZ84075+yEDBmnACcaTOUY4s9sIbQVG6CyURe8sogadyTPCyWzv74UM6CfSK1yRUw44V6fZnDu0RBwM4/a358QVtD8fvbfNdCsBEbBIO9ARn2Z1/meq1flVmtUJqQeQXTDkBhS0Q9y+dohFfnrxy5i9bWti8y8F/tPQWkivhR+l2TqfSbM6HVT0LsKUcsayLqjNSR4y8Y9lJ6PohDF7KaP3tEF0/oXvo3e32SPzLyyaYYcfCsEgfKq1a1lKeVc9Eb1cFhyZXNpJmFTSCQU7nxwyAz7NWQgxeyTRKaN2Iy9AZB7jzvNNpl1tv4gqqQ/Mxbk0a2dGSnlnPS96clmnQnRCSwckWjrglU83D5kBL+36AKI0RDftYtx5Hoy5jDvOnzTktAbOUkW6vVuXUta1Rx3lyR7BO4ngiWbKycXIS5BSdB7Kd8watPjW7BkQn3eWis4Jzotu2IFsBUNOK0Qgs1shYnvr7gnbW8YKIxmppR2PJpV2tvqK8kQUnBM9oegSJBRSxu+/BBn7DkFt9q3XgmPZSfDozmo5ytWi5zDRUfDsVpi0vYXykxa4F/nnlpaJn5ybKYxEJFk6VydZOm70FuWTi2TR44no7YSkY2Fdy7w9dqjOmTpg8auzp0JGro1PLd5RriX6thYI33YOwv9MOXFr880JHze/KIwkJJZ0rOWjnBc9QUv0gnZ1m6joWKbk18P7ua/AV9uj+xQeP/Nuzi8hecdJzdSiJfi9vOAfM25thgnILZRhm5vfEEYCJhdf+i9Z8A5FlCf4iPLYfRe120TWtUgFdGreV/Bq7nrIzl4MldnT4fj2BMKK7OnkvVdy3oef7PjLwKNcQ/TxyI/OwvjNZyEM+SHyzPD+HXFCUcdKn1G+v/coj9EQXNEmDqSAcqJrRXm4jygf/5G36OOQfzpDqP/gDIibzi4ThiPiijsT4/df6hlslEep28SdXm3ireVyn6KfJZSjXBZ83AdUdP0mFL4JxI1NoNt4+qq44XSKMKywBn4Qt/9ijS/R5SjvYzK0axBR/snQRbladCL8H5GnYeyG0zBmw+lavGdhuCC24OKKW43ySH4yJInOCd5rm9jPAiqJHqYQ3XeUy4I3gW4DFX3s/5yGMcj1yFNwz/pTS4ThgphPL/41xmud5XZFeYt3atnaTEXvJcrDBhjlStFPEY5+/xSMfu8U3PPeKRj1TuMJAcD/P+aI3tv+8EAKqNGX6Nm3McoVovce5WO5KCeCc6Lf824j4ah3KH/8zqnp/tZfiMpve5sK3gZRfUT54Apos7JNHFSUN/Ue5e8zwd9TCj5qXSPcva4B7n6b8q61DW/6W3/BtOv8kX5HeT8nQ+GDLqBNXNcyuCi/mxP9Lio63LW2Hn78Vj3c+WbdIX/rL5hyWy/crjZxvOZkqPc2sT8FVCk6E/xdn1FOiIITvonC18Od/10Pd75R1+pv/QVDbuv1v/VkSO/Vm6sK6ACjfFQvUa4UvQ7+EfkG4+t11/2tvxBxuwron25jlJPU0iCL3luU84Jr0N/6C722iQOI8rDBtom3FOUNfUd5H/S3/sK92851D1mbuGkwUa5VQBt8p5YBRLkv3vH6SZe/9RcmfnyuYOgnQ039axP/RlHuk6/X7fa3/sKErS2x47c0dw24TRyiydDdvUU5aRU50QcruCL66zrueKs+XBgOmLCp5d6wzWfzwz486x7KKB/dv8nQLRfQWxL+jZNujPxhI34IIYQQQgghhBBCCCGEIIw0/D/3yz4YG8CD8gAAAABJRU5ErkJggg==;" vertex="1" parent="1">
          <mxGeometry x="77" y="10" width="76" height="76" as="geometry" />
        </mxCell>
        <mxCell id="fFrQpYMXS9mIhHFyNszC-10" style="edgeStyle=orthogonalEdgeStyle;rounded=0;orthogonalLoop=1;jettySize=auto;html=1;jumpStyle=arc;" edge="1" parent="1" source="fFrQpYMXS9mIhHFyNszC-12">
          <mxGeometry relative="1" as="geometry">
            <mxPoint x="950" y="451" as="targetPoint" />
            <Array as="points">
              <mxPoint x="870" y="48" />
              <mxPoint x="870" y="451" />
            </Array>
          </mxGeometry>
        </mxCell>
        <mxCell id="fFrQpYMXS9mIhHFyNszC-11" value="Отправляет запрос" style="edgeLabel;html=1;align=center;verticalAlign=middle;resizable=0;points=[];" vertex="1" connectable="0" parent="fFrQpYMXS9mIhHFyNszC-10">
          <mxGeometry x="-0.1544" y="-4" relative="1" as="geometry">
            <mxPoint as="offset" />
          </mxGeometry>
        </mxCell>
        <mxCell id="fFrQpYMXS9mIhHFyNszC-12" value="Клиент" style="shape=image;verticalLabelPosition=bottom;labelBackgroundColor=default;verticalAlign=top;aspect=fixed;imageAspect=0;image=data:image/png,iVBORw0KGgoAAAANSUhEUgAAAGAAAABgCAYAAADimHc4AAAACXBIWXMAAAsTAAALEwEAmpwYAAAOzElEQVR4nO1be3CTVRb/dldnx792lHwRVxaStLS0FKEJoIiIiEIpT0WX97MCqwgqvlYFk8C6vnZcXd0dH+v44NnCUNqmaUtbkjZfKcUK6jqAUi2jIIpIkpYWBNqzc+7jeyXlUR5Jk/xmzkyb5rvfvb/fueec+6ggJJBAAgkkkEACCSSQQAIJJJBAAlGI8oXX/sGTY5zpmW94y5tj2OHNMTR6c0S/N0cEz3yVzRNhG9pcEbbNoVY5m9ksESrQZhhORno8XQYVs6+70Ztj+NiTY/jV+4AIIZZDTS2AhwvARKicoxNgpvhDpMfVJeCZZ3jUO188rSa8SmVnE0E9C2QBZssCeCI9tqiHd57hX5xYmfgFoRZWhHCzQBuGVkV6fFGLqoUGa92TxvUdkr+QGf/9bLOgAwHKpxmHRHqcUYfqedelexeKlZxEjQAq8quZqUVQz4IOBWAilE8XwX2P+JV7vPGmSI85auDJMTzmfcBwUu3FHQqwiJlKhAsRoOQ+IgC4JhmOF00URwvxjLz7hd95HhDf7iiEXOoZUDaFko9WPEmE4gnir8XjjXcL8QpvjuED2dPDVDEhOYATH06Ac+SArVNEKLmXCYDko00UwTXe0OzKvi5NiDd45xueDSFNX8Hgz7z8DFMBdZiEVW0Qz58qQslknQATmQATRHCNM3xebxOuFuIFnjniAM988UxY4vWhYy7LCWFEONs6AJ8rnyFC6f007qMAbr0ASD7aeBGKxnZ7XIgXbJtr2M4J96hMJj7MAgrLR/43megclc1nHk/KTBFK/0zJL71P5f1MgGK1AOOpFY4zHMm7v8c1QqyjfJZxCPFytc2lJi3uDgfesYC/KB0CJRlweF0a7H3FAjWLb+ArWGLo2VhOom2dxmwqTbJoVTnd4X+rLHDwg3Q4VpABwdIM8Bf2hf2vW3ANECrAOJwBIhSO6TZdiHVUzhHf1nj6XGq1S7uDvyANmrdmwPHym+B4xQBoqbRCy7aB0LptEBzNz4Rv/5MGu5abYPuSG8EzvztUzDQS88zrDnXLesLeV1Pg500DoNUzmDyDz2Ib2Ba2iW0fyUuF8mnXK/FfJUBRtrhBiHVUzhF38V3Kbcy8OUY4mp8KzVv7wfHy/nC8IhNaKm3Qsm0QJdN7C5yoGgInqm6FE1VD4UT1UDhZfZvG8DNi5DtDyDP4LLaBbWGb2Da+4/v3k1kFxOI/nwHZhgYh1lExS/STmK6K8V+/bmKe3x9aGPmtnkHQ6r1ZIZ6T7RsGJ323d2DDmBi3UaGIEDeTtoigsggZUP9kD8X75RAktgqxjopZ4ik5sc7GVe310FTal4WdTGjZZlN5/a3M2znpw+FXCe0OajUjqPHfpeHkO+S71cPkGaHMBmUmHMlLozlACT9QkC3G/jlB+UzRj5UKt72vmFQxn3s+JV/t8Qrhd8IptO0jtVZzJ/kbF4QKwWaEWgQSjmhOqF1yo+z9KEDhGPEnIdZRPtNwgFczFbNEOJqfLidcTJx68mWPl0m/C07V3k3sNDP+O/nb9pFUCHlG6EQgOYEm5oY3kyn5JP4boSDL+JUQ6yifKVZzAWqX3kA8kcR9rHY8LOZj2OHk14xgHk+JP107Ck7vGM0sixn7vXaUIoQ8G6gINBwNIe8g1VFFJgTd/cA9yci834gzoFyIdWydbviI1PEzRPjyRZMq9AyGE8T7ecxHz1fIV4jPgjN1Y+BMXbbOxihioBBcBGkEDUeYEzAx60JR7dIexPuJAKPF/wqxjvLphuV8EXXo4z4s8XLv56GHxnw9+TLxO8dC285x0PYJs53jyGeKEHoR7mCJmYUiNgvw3V+9msS83whbRhuXC7GOimnGSUSAGSIEi/vpYr8u9GwfSeM8Jx+JJ6SPh7ZPJugMP+NCcBHuZjlBFYqqhmpywY/r+1IBsoxQOEqcLMQ6KqeISbh1ULWguzb8kNgfxvt3jIIzdVlwZme2Qn79BGivn6gx/EwRAWcChqOOZsEQJQyVDwD3PddjAoYto7ulCrEOu134bdlUQ3P90z2oAOHCT4j3Z7OQoyL/00laU4uAIakuO2QWhA9DA8C3oAcUjBJb8YBIiAeUTRHr9rxsUeK/lwugDj889nPv15N/D7Tvupca/qwTAZ8hSZnlAjkMkWSMJamSB3Y/Z4KC0cZPhFjHd3k9rtm/ttfLVY8Ymr95K1kpP0Piv5J8afgZqxJAIR92TSYmi1A/SSUAywWyAHeG5AFejn79Wm+oyDE2Y9+wj0KsojHX8l7D2l6wfYUIBz9MPU8BxmgFUHk/7J5MTD0LOiPAd++lQvVTRsC+NW6wvCvEKho3WFpxkDtfMpK9mJYOBRhxlhkwUTUDqCkzYKJOgKzzEuCnDemw42+yAC1CrOJArqURB7n730YIujPOkQNG6nIAJmFdDtAYywGkJB2nywEjz5oDgsUZsOstKgD2UYhVNOZaNuEgP3/PSPf+K7AKsoVZhFEBToWsAc6vClKvBejWxEi2ItZXQXQ1jH3BPrEZsFGIVTRuMD+jCIAzQL0NwfeAwq2Cs0JK0TbNGiBcCaqEH/U6gOwJeVXrgAqdAHmWvwqxim83mG7XCFDeP3QlrAtD2lmgEkGzGma/ky2J7FDv14Qf7UqYH9BwAbCPQqwCQPhNw9qe//jsXWNTc5n6ECb8XpBSDXERslR7QWw/iNhY1V4Q35Cju6K/nmMviJwVl/UF7FPD2l6vYh+FeEBTaTrLA2wWyAcxygmYNhTdrdsNVe+IjtHthqq2pGXyVd7v4WcC9IwY+yLEG5pK+0DoLOB7QrQkpVvSqsMYfh6gORPgRj9Xwg4nX38eMDjE+7EvQrwh6E5tbypL1+QCcguClaShIvCzAe2pmP40TDmI0ZPPS0917O8H2AfsixBvCLp7H+OzQC5JsSLSiyCHo+Gh58I1SHjoeTBdcOkP5m9miVepfLj3B4qTjwrxhkBxUlWwJAWaStOguYxfxsrUiYBXUobqDudVtyJCjBEvnwOrrqZo7gfRS1r47qaSFAgWJ8ff/4z5XaYngu7e0FSSSpKgciNOJQJWRrg+kGcD3g0a1sHdICSd3wtiF7RIvd8R+enk3dgHf6F5mRBvCG7+Y7dAcVKLLIKcD3TXEskdIZUQTAxq7BKW5lYcI55cyBoc9noivouTH3BZmgOuntcK8YiAy2QPFicRIppK+oQRgV9RZEKgN2OpSmyIzm5hJaaaeBtpI5T8PuSd+O6Ay/ycEK8Ad/Lv/S7TTkWEVJYT+qruiWqF4Jd1ybqBiII2SLmMG0J8f1XCTZM9H9/pd5nqsA9CPONYoaWn32X6OaARAasjOhuoEHRGkPxAcoQ1vGGMr1B7fD/aBnp9aR8l7CD5ReZf/CW9TJEef1QgUGga5S8ynQwUWyDoToagO0U1G9LlGSGLgTMjrHHSqcdT4rnXp5C28R34Ln+hZWSkxx1V8Lt6jQi4TE0Bl5mEBxImsExlM0IjRhnODJ3hZ2rSucdjmanEewgUmY+j4JEeb1SiqdgyNOAy+wlRLgsTIpmFJrUYVBCtsc/xO5x0fJYQb6Hku8z+oCvp1kiPM6rhL+ll8heZJEYYtWKtGIoh0Zzs3lrSi2XSiWHCDRQkJUd6fF0C4Bl+1fd5KgE0ZqHkhjPF0zV2cKMZoN4WP/+Geimw5yMz7F9jhsObOxLi3PZTvhn2rzUDthXp8XQ57PmIEofWsNYMP27GMHJu0v2M+IZ1yvMJAS5SgD3M9q02w4FcM/yYb4ZfChTSfymkAh3YYIZ9H4c+lxDgPGGTViWlbnnkw5SNS74JR+LFWMqmpQ2p+Y98ONBnt3TGIWIWmbUr02w+p8Pmc3xhk5xgXr2Q2KUWgLeL77BJzs+tksM+UFoZ+7ehw8FW/87VA2tWTrVKDi8jRDZO1PefvQl7V6dcNPHYxve739ALQM3naLdKTk+m5Jgy3GO/SogH4m2+lbNtkuNrPfE2LsCaRXQGNLjh5LG98G3R2E6Tj89iG3saiqkAaxaFfScVw9lo9TkeSXa/EZubc5nV9qyzEW9j1nvjEkLW1C1PQHvbaWhvPwP+/RuhYctd5008fhefwWexjRlbHidtpmxactZ3o1l9jn02yR47WxU2j91g9Tk3nmvgNmb9yp6Rw8XufZtBjdYjn8KR3a/BgbLpsH/TUNi3Np0Y/oyf4d/wO2pgG7w9bPt8+2GTHLmD6v7eTejKGOiz32XzOQ+d/6CdOHDonfcwIeyW9YvhxPFD0FmcbDkMQ3NpW9gmtn1BffE5Dtok5wihK8IqORZYJefpCyPfSeymiufAvJrmgqfLnieh5ILR3gYrtjqY9y8ibXamL1bJccbqcywWuhKsPsfLnRmsTWVpWx6TQ4f3izUXzD8+w59PK3jsovrCZsMLQleAzedwXvRgJUyGdkje8BANH2sWwsGD0nmTf/iHHZDKqqnk9Q+Ctdp+8QIQEZzR/X/EmTWOeZdkoBK1/pXPyWXpsNyHoSXYeE7y8Tv4XV52YhuXsk9YRgvRiIE19gybz9lySQcrOaGv+0k5lEzOXwanThztkPzTJ4/BlPwn5O9nuJ+6tOTTMrV1gG9lfyGqAPbfWn3Ouks9WBuz1C2PyqQ+7H4W2k63hpDfduYELCtdLn8vNf/Ry9IXao56HLMQLbBKK+devsE60eugd95imdyXKl/QVkbtbfBP70vy3/G7+Mzl7FOmtHKmEC2wSo4vL+dgbShCtR2S1tOkjLa+7k2Zf/yZf568/iHIrHr+svaFmM+xRwCI/D9zZNbYb7/sg5WY13lWgGXdgzLZ7l3vE+O/J637CwzwrLgifaEi2G+LNP+Czed85YoNWMLKaDlY1tLKSG0WrHg6udjqvDlejDT/gk1y1l7ZQTs1+0XKPs/TV5h8zE3OmkjzL1gl5+ErPXCb6twg7D7/lTKf81A0rHxPxa8AjlPREIIgbgWQnJG/7pIQIMKw+hxNcTsDfI5ANMyA/LgVQHLkRpp/Aa922CTHsXgTwOpzHB28w95DiAYMrFr1J5vkzLP6nMFYF8BKxujIjRryE0gggQQSSCCBBBJIIAGhq+H/6ooShb9zU7QAAAAASUVORK5CYII=;" vertex="1" parent="1">
          <mxGeometry x="700" y="10" width="76" height="76" as="geometry" />
        </mxCell>
        <mxCell id="fFrQpYMXS9mIhHFyNszC-13" style="edgeStyle=orthogonalEdgeStyle;rounded=0;orthogonalLoop=1;jettySize=auto;html=1;entryX=0;entryY=0.5;entryDx=0;entryDy=0;" edge="1" parent="1" source="fFrQpYMXS9mIhHFyNszC-15" target="fFrQpYMXS9mIhHFyNszC-41">
          <mxGeometry relative="1" as="geometry">
            <Array as="points">
              <mxPoint x="120" y="497" />
            </Array>
          </mxGeometry>
        </mxCell>
        <mxCell id="fFrQpYMXS9mIhHFyNszC-14" value="Анализирует&lt;div&gt;кредитные&lt;div&gt;риски&lt;/div&gt;&lt;/div&gt;" style="edgeLabel;html=1;align=center;verticalAlign=middle;resizable=0;points=[];" vertex="1" connectable="0" parent="fFrQpYMXS9mIhHFyNszC-13">
          <mxGeometry x="0.2161" relative="1" as="geometry">
            <mxPoint as="offset" />
          </mxGeometry>
        </mxCell>
        <mxCell id="fFrQpYMXS9mIhHFyNszC-15" value="Сотрудник отдела кредитования" style="shape=image;verticalLabelPosition=bottom;labelBackgroundColor=default;verticalAlign=top;aspect=fixed;imageAspect=0;image=data:image/png,iVBORw0KGgoAAAANSUhEUgAAAGAAAABgCAYAAADimHc4AAAACXBIWXMAAAsTAAALEwEAmpwYAAAQAElEQVR4nO1ba3RUVZa+09O9Zjm2IlC3CBBJVeUd8iStNIoyiEKIINi2gyLviPPDpd3ar5lpZzGzWkcRHwwNtgg2khAIAQlJqvKgKqlK5GEgg63TC8kDAiGBEJJUVSCIgO5Z+5xz655761YeJHQlVfWt9a2VqlTdx/fts/c+59wShBBCCCGEEEIIIYQQQgghhBBCCGEYwvrC6FH2LP0S+yrdRkeW7nNHlq7JkSU6HVki2FdxXClCJXKFCJXLKSuWMS4VwYZ8TnfN3/czYmBbNmaiI0uXbc/Sfet4XgQvZlHyBtglA5gJFctVBiwRz/v7vkYE7Ct1v3SsEm/wgldx7M0EfhR4DFjmMcDu73sb9nCs1G2QhPUIv9qbmiZojQJlGvqDv+9v2KLqBd2Umt/od/kU/wVG6XVvo8CHAdZn9dP8fZ/DDtUrxyQ4XhArJBEVBnDiVzPyJvCjwKcBzATrYhFKnhTrSubrk/19z8MG9izdK47nddf4KPZpwL8wciYMxIDSnxMDwLxQd6V4gThHCGbkPy38vf158UNfKWSoR0D5Iio+0rJQBMsT4reW+frHhGCFI0u3zRPpGl2MVw2QhNcyoI8acGCRCKU/Ywag+MgFIpjn6y6bM8fEC8EGxyrdv3uJpu5g8G+p/dTogHwWYe4YJPKfEaH0KZUBC5gBT4hgnqf7sjZd+JEQLLAvF1Ptq8SbmsKrU8cKVhM0TOhtHoDfsz4nQtnPad5HA0rUBqD4yPkiFD8+9ldCsKByhe6wJLido0d4jQkUto/S/zxCZ3FcxSKetJkilP2zCGVPMwOk6GcGWHgD5lMWzdO15z8dfocQ6LAu1U8jUc5zBeXBF8PgzGYTOIsTwFWaCBd2xsPXb5vg0IvjpRksIUY2tpPIA88yPkOLLLIqKwz+7w8maNmWAF2FieAuSwRn0WRoWG/COYC3AfNwBIhQNHfsYiHQUbFc/FAR6Ssoj7wcBs7CeLh8IBGuWJPhii0VeiqmQE/lT+Bq5X3QUZAGpz+Ih+OvGeDwSxPBvioMbEv0hPaVYVDz6iT4el0MXNqbClft95Pv4HfxGHgsPCYeuz0/FqzPjpPzP2dAcaaYJwQ6KpaLx6VVykpGR5YeOgpi4fKBJLhiTYErtjToqUiHnsr7qJiOn8I3VdPgm6oH4JvqBwmvVU9XkLxfhXyAfBa/g9/FY+Cx8Jh4bDzHuY+jWAfE8r80AjJ1jUKgw7ZUdJKczuX4+vUGFvkp0MPEv2q/D646pjLhUXQm9mcPwbXPHvbBh5gZ0zkjppJjEUM9JiRC7W/C5ej3pCDxqhDosC0Vr3sK6zKc1Y6D7rLJcuRXpnNRTyP+WrUk+gz49iDynygPzaSUXh+cQT5DPlv9EBsVD3CjQRoJydCeH09rgJx+oDBTDPx9AusS0YmdisSv3zZwOV8pvhzxMzjBH4HryMOzlDz0CPmfZIhiRHhMkNIRrQlHXproiX40oGiueFEIdFiX6M5I3YxtqQgdBQmegouFUy2+J+I9oj8K1488RniDUXpN/nd4FjXCMyJUJpCaQAtz4x+jqPgk/+uhMENfJwQ6rEvEasmAIy+PJ5FI8j52O3aW8zHtSOIfmskingp/48hsuPH5HMYMRvb6yGzZCM9ooCbQdDSNnIN0R7Y0cJckQclCPYt+PY4AqxDoOLBYt5308c+J8Nc3DYrU8w2JfinnY+TL4svCZ8DNmrlwsyZTxbmyGWiEZMLBmbQuYE3AYi7VA5aKjrwcTqKfGDBH3CoEOqyLda9Jk6jW7DhWeKXol1LPwySFqMX3CH/0cfju6Dz47hjj0XnkPdkItQmsJkipiI0CPHfdukgW/XrYP0f/mhDosD2rX0gMeE4EtyVJlftVqefwLJrnJfFReCL6fPju2BMq4nuSEZIJj7GawKWiqgcVtaBt12RqQIYeimaLTwmBjopFYiQuHVStDlOmn6pp2tH/+Wy4WZMBN49myuLXPgHf1y5QEN+TTcCRgOnIexTQOcI0OQ1ZU6HkyXFYgGH/nLGxQqBjzRrhB+XP6C7X/i6cGqCVfryiP5OlHE78/12oJG8CpqSaTK9RoJ2GUuGz1eFQOFu8ihtEQjCgfJFYc2KtSc7/DskAPv1IuV+KfrX4T8L3x39GiX+rTMDvkKLMaoEnDZFijC2pXAe++L0BCufojwmBjub88DsaciPWVv1Cd/nUxii5/fTK/3LxlXO/ZIAsPhx/itBjgsIArAW8AY941QGpHa1/LxpsWfrLeG14jUKgomm3aUtjbgQc/g8RWj6JvTUDuOiHL54i5EeB0oC5/TKgeUssVP9WD3htTXmmj4RARVOe6Sre5NG39GQtpqdfBmSoRsACbgRQ9m8E8ClIacDFvAT4/HWPAT1CoOLMblMT3uQXm/TgLknsowbMUtUALMKqGqAgqwGkJZ2nqgGzeq0BbksiHN9IDcBrFAIVTbtNe/Emv9yip2v/NuyC0jUmYdSA615zgP51QfxcgC5NzGIzYnUXRGfDeC14TWwE7BECFU15xn/zMqBCWoaQ1oC0ZsEZXq3od4o5gFYLKqcf5TwAlyO4eYANDUiUDcg3/asQqDidZ3hYNoBtwKhnwqo0pBwFnAmK2TB7TZYkMr2jXyP/e1ZF2QaNZABeoxCoABD+rjF30jt/+UjffbkcN2GSe10LkouxZEIGtxbE1oMIH+fWgqQFOboq+m0fa0Fkr7h8MuA1NeZGrMNrFIIB3WUJLA2xUUC2IPnVUHUqeky1GsqviM5VrYZyS9Ie8bnot0t7AnSPGK9FCDZ0l8WB9yi4X7EfIO+Esc0Yz34Avycg7wXI+wHypgzdouT3A+73in68FiHY4C6J/b67nI0CVgvIUxCsJfU2QdobUO6KqXfD5I0YtfhS66nM/XgNeC1CsMFdEt0ljQJFR6Q2wZOONPaFD6Hg3vvBdMar3pifygqv3HpK0e+yRHUIwQaXJbKquzQGusv4h7HSVCbQR1L4x1EUT0V4kQnv2QdmaUchvpR6Esm53aUx4LZEBd9vxpxmw6/dJdHQXRpLiqCmCdgZ4fzAMxrw2aCHfDwbhKJLzwWxB7RIv68hPqaesgRybndJFDiLjK8KwQb3vgljXZbIHo8JpB5oPJZIHlPhjOCejiObK5LgkuiS8OSBrPs1H0/Ec1Hxo8FlNl12mSeNFoIRLrNhjdsSSYToLo3TMEF6RJEZgdGMrSrhNBV/ylpMXvh0cgxv8ePIOfHcLrPx90KwAkqi/sFpNhyVTcB0FC8XZvK0nNII6WFdMm8gpiDvkx/G9RI+hSu48Z7Ix3M6zYYavAYhmNFVZJrkNBsuuRQmYHdERwM1go4IUh9IjZiiTczxNj7ik+gxMOrL4uS0g+IXGzudpREGf9//sICryDDbWWy45rKYSFF0l8RwoyHBMyI8ZuDI0KQkOo14KrwU9THk2HgOPJezyDTL3/c9rOA0R8x0mQ3dLrORpAeSJrBNZSNCYUY5jgwV8T1edCnisc2U8z24io1X0HB/3++wRLfF9KDLbHQSocwmZkQUS028GdQQJdn7+BlJdPwuEd5ExTcbnW5z5AP+vs9hDWdphMFZbDjIBKO0KM2QiUJLYkcrRbd4RCfEgusqjIzy9/2NCIB9xg/P5XMGKGii4mpRjnQFW/YYAWrTg+dnqEOBE9uN0LDDCBf2+TKib14sMEJDrhHwWP6+nxGHE9upcMjGXCO07cM00rfoTiZ84075+yEDBmnACcaTOUY4s9sIbQVG6CyURe8sogadyTPCyWzv74UM6CfSK1yRUw44V6fZnDu0RBwM4/a358QVtD8fvbfNdCsBEbBIO9ARn2Z1/meq1flVmtUJqQeQXTDkBhS0Q9y+dohFfnrxy5i9bWti8y8F/tPQWkivhR+l2TqfSbM6HVT0LsKUcsayLqjNSR4y8Y9lJ6PohDF7KaP3tEF0/oXvo3e32SPzLyyaYYcfCsEgfKq1a1lKeVc9Eb1cFhyZXNpJmFTSCQU7nxwyAz7NWQgxeyTRKaN2Iy9AZB7jzvNNpl1tv4gqqQ/Mxbk0a2dGSnlnPS96clmnQnRCSwckWjrglU83D5kBL+36AKI0RDftYtx5Hoy5jDvOnzTktAbOUkW6vVuXUta1Rx3lyR7BO4ngiWbKycXIS5BSdB7Kd8watPjW7BkQn3eWis4Jzotu2IFsBUNOK0Qgs1shYnvr7gnbW8YKIxmppR2PJpV2tvqK8kQUnBM9oegSJBRSxu+/BBn7DkFt9q3XgmPZSfDozmo5ytWi5zDRUfDsVpi0vYXykxa4F/nnlpaJn5ybKYxEJFk6VydZOm70FuWTi2TR44no7YSkY2Fdy7w9dqjOmTpg8auzp0JGro1PLd5RriX6thYI33YOwv9MOXFr880JHze/KIwkJJZ0rOWjnBc9QUv0gnZ1m6joWKbk18P7ua/AV9uj+xQeP/Nuzi8hecdJzdSiJfi9vOAfM25thgnILZRhm5vfEEYCJhdf+i9Z8A5FlCf4iPLYfRe120TWtUgFdGreV/Bq7nrIzl4MldnT4fj2BMKK7OnkvVdy3oef7PjLwKNcQ/TxyI/OwvjNZyEM+SHyzPD+HXFCUcdKn1G+v/coj9EQXNEmDqSAcqJrRXm4jygf/5G36OOQfzpDqP/gDIibzi4ThiPiijsT4/df6hlslEep28SdXm3ireVyn6KfJZSjXBZ83AdUdP0mFL4JxI1NoNt4+qq44XSKMKywBn4Qt/9ijS/R5SjvYzK0axBR/snQRbladCL8H5GnYeyG0zBmw+lavGdhuCC24OKKW43ySH4yJInOCd5rm9jPAiqJHqYQ3XeUy4I3gW4DFX3s/5yGMcj1yFNwz/pTS4ThgphPL/41xmud5XZFeYt3atnaTEXvJcrDBhjlStFPEY5+/xSMfu8U3PPeKRj1TuMJAcD/P+aI3tv+8EAKqNGX6Nm3McoVovce5WO5KCeCc6Lf824j4ah3KH/8zqnp/tZfiMpve5sK3gZRfUT54Apos7JNHFSUN/Ue5e8zwd9TCj5qXSPcva4B7n6b8q61DW/6W3/BtOv8kX5HeT8nQ+GDLqBNXNcyuCi/mxP9Lio63LW2Hn78Vj3c+WbdIX/rL5hyWy/crjZxvOZkqPc2sT8FVCk6E/xdn1FOiIITvonC18Od/10Pd75R1+pv/QVDbuv1v/VkSO/Vm6sK6ACjfFQvUa4UvQ7+EfkG4+t11/2tvxBxuwron25jlJPU0iCL3luU84Jr0N/6C722iQOI8rDBtom3FOUNfUd5H/S3/sK92851D1mbuGkwUa5VQBt8p5YBRLkv3vH6SZe/9RcmfnyuYOgnQ039axP/RlHuk6/X7fa3/sKErS2x47c0dw24TRyiydDdvUU5aRU50QcruCL66zrueKs+XBgOmLCp5d6wzWfzwz486x7KKB/dv8nQLRfQWxL+jZNujPxhI34IIYQQQgghhBBCCCGEIIw0/D/3yz4YG8CD8gAAAABJRU5ErkJggg==;" vertex="1" parent="1">
          <mxGeometry x="86" y="294" width="76" height="76" as="geometry" />
        </mxCell>
        <mxCell id="fFrQpYMXS9mIhHFyNszC-25" style="edgeStyle=orthogonalEdgeStyle;rounded=0;orthogonalLoop=1;jettySize=auto;html=1;entryX=1;entryY=0.5;entryDx=0;entryDy=0;" edge="1" parent="1">
          <mxGeometry relative="1" as="geometry">
            <Array as="points">
              <mxPoint x="987" y="541" />
            </Array>
            <mxPoint x="986.9000000000001" y="487.8299999999999" as="sourcePoint" />
            <mxPoint x="805" y="541" as="targetPoint" />
          </mxGeometry>
        </mxCell>
        <mxCell id="fFrQpYMXS9mIhHFyNszC-26" value="Обрабатывает &lt;br&gt;обращения" style="edgeLabel;html=1;align=center;verticalAlign=middle;resizable=0;points=[];" vertex="1" connectable="0" parent="fFrQpYMXS9mIhHFyNszC-25">
          <mxGeometry x="0.4257" relative="1" as="geometry">
            <mxPoint as="offset" />
          </mxGeometry>
        </mxCell>
        <mxCell id="fFrQpYMXS9mIhHFyNszC-32" value="Система кол-центра" style="rounded=1;whiteSpace=wrap;html=1;fillColor=#A9C4EB;strokeColor=none;" vertex="1" parent="1">
          <mxGeometry x="690" y="495" width="120" height="90" as="geometry" />
        </mxCell>
        <mxCell id="fFrQpYMXS9mIhHFyNszC-33" value="Система депозитов" style="rounded=1;whiteSpace=wrap;html=1;fillColor=#A9C4EB;strokeColor=none;" vertex="1" parent="1">
          <mxGeometry x="281" y="489" width="120" height="60" as="geometry" />
        </mxCell>
        <mxCell id="fFrQpYMXS9mIhHFyNszC-34" value="Система кредитов" style="rounded=1;whiteSpace=wrap;html=1;fillColor=#A9C4EB;strokeColor=none;" vertex="1" parent="1">
          <mxGeometry x="414" y="489" width="120" height="60" as="geometry" />
        </mxCell>
        <mxCell id="fFrQpYMXS9mIhHFyNszC-35" style="edgeStyle=orthogonalEdgeStyle;rounded=0;orthogonalLoop=1;jettySize=auto;html=1;" edge="1" parent="1" source="fFrQpYMXS9mIhHFyNszC-41" target="fFrQpYMXS9mIhHFyNszC-52">
          <mxGeometry relative="1" as="geometry">
            <Array as="points">
              <mxPoint x="481" y="425" />
              <mxPoint x="481" y="425" />
            </Array>
          </mxGeometry>
        </mxCell>
        <mxCell id="fFrQpYMXS9mIhHFyNszC-36" value="Информирование клиента" style="edgeLabel;html=1;align=center;verticalAlign=middle;resizable=0;points=[];" vertex="1" connectable="0" parent="fFrQpYMXS9mIhHFyNszC-35">
          <mxGeometry x="-0.1096" relative="1" as="geometry">
            <mxPoint as="offset" />
          </mxGeometry>
        </mxCell>
        <mxCell id="fFrQpYMXS9mIhHFyNszC-41" value="Автоматизированная банковская система&lt;br&gt;&lt;br&gt;&lt;br&gt;&lt;br&gt;&lt;br&gt;&lt;br&gt;&lt;br&gt;&lt;div&gt;&lt;br/&gt;&lt;/div&gt;" style="rounded=0;whiteSpace=wrap;html=1;fillColor=none;dashed=1;movable=1;resizable=1;rotatable=1;deletable=1;editable=1;locked=0;connectable=1;" vertex="1" parent="1">
          <mxGeometry x="255" y="435" width="299" height="123" as="geometry" />
        </mxCell>
        <mxCell id="fFrQpYMXS9mIhHFyNszC-42" style="edgeStyle=orthogonalEdgeStyle;rounded=0;orthogonalLoop=1;jettySize=auto;html=1;" edge="1" parent="1" source="fFrQpYMXS9mIhHFyNszC-46" target="fFrQpYMXS9mIhHFyNszC-15">
          <mxGeometry relative="1" as="geometry" />
        </mxCell>
        <mxCell id="fFrQpYMXS9mIhHFyNszC-43" value="Согласовывает&lt;div&gt;специальную ставку&lt;/div&gt;" style="edgeLabel;html=1;align=center;verticalAlign=middle;resizable=0;points=[];" vertex="1" connectable="0" parent="fFrQpYMXS9mIhHFyNszC-42">
          <mxGeometry x="0.4542" y="1" relative="1" as="geometry">
            <mxPoint as="offset" />
          </mxGeometry>
        </mxCell>
        <mxCell id="fFrQpYMXS9mIhHFyNszC-44" style="edgeStyle=orthogonalEdgeStyle;rounded=0;orthogonalLoop=1;jettySize=auto;html=1;" edge="1" parent="1" source="fFrQpYMXS9mIhHFyNszC-46" target="fFrQpYMXS9mIhHFyNszC-41">
          <mxGeometry relative="1" as="geometry" />
        </mxCell>
        <mxCell id="fFrQpYMXS9mIhHFyNszC-45" value="Рассчитывает ставку депозита" style="edgeLabel;html=1;align=center;verticalAlign=middle;resizable=0;points=[];" vertex="1" connectable="0" parent="fFrQpYMXS9mIhHFyNszC-44">
          <mxGeometry x="-0.5736" y="3" relative="1" as="geometry">
            <mxPoint as="offset" />
          </mxGeometry>
        </mxCell>
        <mxCell id="fFrQpYMXS9mIhHFyNszC-46" value="Сотрудник отдела депозитов" style="shape=image;verticalLabelPosition=bottom;labelBackgroundColor=default;verticalAlign=top;aspect=fixed;imageAspect=0;image=data:image/png,iVBORw0KGgoAAAANSUhEUgAAAGAAAABgCAYAAADimHc4AAAACXBIWXMAAAsTAAALEwEAmpwYAAAQAElEQVR4nO1ba3RUVZa+09O9Zjm2IlC3CBBJVeUd8iStNIoyiEKIINi2gyLviPPDpd3ar5lpZzGzWkcRHwwNtgg2khAIAQlJqvKgKqlK5GEgg63TC8kDAiGBEJJUVSCIgO5Z+5xz655761YeJHQlVfWt9a2VqlTdx/fts/c+59wShBBCCCGEEEIIIYQQQgghhBBCCGEYwvrC6FH2LP0S+yrdRkeW7nNHlq7JkSU6HVki2FdxXClCJXKFCJXLKSuWMS4VwYZ8TnfN3/czYmBbNmaiI0uXbc/Sfet4XgQvZlHyBtglA5gJFctVBiwRz/v7vkYE7Ct1v3SsEm/wgldx7M0EfhR4DFjmMcDu73sb9nCs1G2QhPUIv9qbmiZojQJlGvqDv+9v2KLqBd2Umt/od/kU/wVG6XVvo8CHAdZn9dP8fZ/DDtUrxyQ4XhArJBEVBnDiVzPyJvCjwKcBzATrYhFKnhTrSubrk/19z8MG9izdK47nddf4KPZpwL8wciYMxIDSnxMDwLxQd6V4gThHCGbkPy38vf158UNfKWSoR0D5Iio+0rJQBMsT4reW+frHhGCFI0u3zRPpGl2MVw2QhNcyoI8acGCRCKU/Ywag+MgFIpjn6y6bM8fEC8EGxyrdv3uJpu5g8G+p/dTogHwWYe4YJPKfEaH0KZUBC5gBT4hgnqf7sjZd+JEQLLAvF1Ptq8SbmsKrU8cKVhM0TOhtHoDfsz4nQtnPad5HA0rUBqD4yPkiFD8+9ldCsKByhe6wJLido0d4jQkUto/S/zxCZ3FcxSKetJkilP2zCGVPMwOk6GcGWHgD5lMWzdO15z8dfocQ6LAu1U8jUc5zBeXBF8PgzGYTOIsTwFWaCBd2xsPXb5vg0IvjpRksIUY2tpPIA88yPkOLLLIqKwz+7w8maNmWAF2FieAuSwRn0WRoWG/COYC3AfNwBIhQNHfsYiHQUbFc/FAR6Ssoj7wcBs7CeLh8IBGuWJPhii0VeiqmQE/lT+Bq5X3QUZAGpz+Ih+OvGeDwSxPBvioMbEv0hPaVYVDz6iT4el0MXNqbClft95Pv4HfxGHgsPCYeuz0/FqzPjpPzP2dAcaaYJwQ6KpaLx6VVykpGR5YeOgpi4fKBJLhiTYErtjToqUiHnsr7qJiOn8I3VdPgm6oH4JvqBwmvVU9XkLxfhXyAfBa/g9/FY+Cx8Jh4bDzHuY+jWAfE8r80AjJ1jUKgw7ZUdJKczuX4+vUGFvkp0MPEv2q/D646pjLhUXQm9mcPwbXPHvbBh5gZ0zkjppJjEUM9JiRC7W/C5ej3pCDxqhDosC0Vr3sK6zKc1Y6D7rLJcuRXpnNRTyP+WrUk+gz49iDynygPzaSUXh+cQT5DPlv9EBsVD3CjQRoJydCeH09rgJx+oDBTDPx9AusS0YmdisSv3zZwOV8pvhzxMzjBH4HryMOzlDz0CPmfZIhiRHhMkNIRrQlHXproiX40oGiueFEIdFiX6M5I3YxtqQgdBQmegouFUy2+J+I9oj8K1488RniDUXpN/nd4FjXCMyJUJpCaQAtz4x+jqPgk/+uhMENfJwQ6rEvEasmAIy+PJ5FI8j52O3aW8zHtSOIfmskingp/48hsuPH5HMYMRvb6yGzZCM9ooCbQdDSNnIN0R7Y0cJckQclCPYt+PY4AqxDoOLBYt5308c+J8Nc3DYrU8w2JfinnY+TL4svCZ8DNmrlwsyZTxbmyGWiEZMLBmbQuYE3AYi7VA5aKjrwcTqKfGDBH3CoEOqyLda9Jk6jW7DhWeKXol1LPwySFqMX3CH/0cfju6Dz47hjj0XnkPdkItQmsJkipiI0CPHfdukgW/XrYP0f/mhDosD2rX0gMeE4EtyVJlftVqefwLJrnJfFReCL6fPju2BMq4nuSEZIJj7GawKWiqgcVtaBt12RqQIYeimaLTwmBjopFYiQuHVStDlOmn6pp2tH/+Wy4WZMBN49myuLXPgHf1y5QEN+TTcCRgOnIexTQOcI0OQ1ZU6HkyXFYgGH/nLGxQqBjzRrhB+XP6C7X/i6cGqCVfryiP5OlHE78/12oJG8CpqSaTK9RoJ2GUuGz1eFQOFu8ihtEQjCgfJFYc2KtSc7/DskAPv1IuV+KfrX4T8L3x39GiX+rTMDvkKLMaoEnDZFijC2pXAe++L0BCufojwmBjub88DsaciPWVv1Cd/nUxii5/fTK/3LxlXO/ZIAsPhx/itBjgsIArAW8AY941QGpHa1/LxpsWfrLeG14jUKgomm3aUtjbgQc/g8RWj6JvTUDuOiHL54i5EeB0oC5/TKgeUssVP9WD3htTXmmj4RARVOe6Sre5NG39GQtpqdfBmSoRsACbgRQ9m8E8ClIacDFvAT4/HWPAT1CoOLMblMT3uQXm/TgLknsowbMUtUALMKqGqAgqwGkJZ2nqgGzeq0BbksiHN9IDcBrFAIVTbtNe/Emv9yip2v/NuyC0jUmYdSA615zgP51QfxcgC5NzGIzYnUXRGfDeC14TWwE7BECFU15xn/zMqBCWoaQ1oC0ZsEZXq3od4o5gFYLKqcf5TwAlyO4eYANDUiUDcg3/asQqDidZ3hYNoBtwKhnwqo0pBwFnAmK2TB7TZYkMr2jXyP/e1ZF2QaNZABeoxCoABD+rjF30jt/+UjffbkcN2GSe10LkouxZEIGtxbE1oMIH+fWgqQFOboq+m0fa0Fkr7h8MuA1NeZGrMNrFIIB3WUJLA2xUUC2IPnVUHUqeky1GsqviM5VrYZyS9Ie8bnot0t7AnSPGK9FCDZ0l8WB9yi4X7EfIO+Esc0Yz34Avycg7wXI+wHypgzdouT3A+73in68FiHY4C6J/b67nI0CVgvIUxCsJfU2QdobUO6KqXfD5I0YtfhS66nM/XgNeC1CsMFdEt0ljQJFR6Q2wZOONPaFD6Hg3vvBdMar3pifygqv3HpK0e+yRHUIwQaXJbKquzQGusv4h7HSVCbQR1L4x1EUT0V4kQnv2QdmaUchvpR6Esm53aUx4LZEBd9vxpxmw6/dJdHQXRpLiqCmCdgZ4fzAMxrw2aCHfDwbhKJLzwWxB7RIv68hPqaesgRybndJFDiLjK8KwQb3vgljXZbIHo8JpB5oPJZIHlPhjOCejiObK5LgkuiS8OSBrPs1H0/Ec1Hxo8FlNl12mSeNFoIRLrNhjdsSSYToLo3TMEF6RJEZgdGMrSrhNBV/ylpMXvh0cgxv8ePIOfHcLrPx90KwAkqi/sFpNhyVTcB0FC8XZvK0nNII6WFdMm8gpiDvkx/G9RI+hSu48Z7Ix3M6zYYavAYhmNFVZJrkNBsuuRQmYHdERwM1go4IUh9IjZiiTczxNj7ik+gxMOrL4uS0g+IXGzudpREGf9//sICryDDbWWy45rKYSFF0l8RwoyHBMyI8ZuDI0KQkOo14KrwU9THk2HgOPJezyDTL3/c9rOA0R8x0mQ3dLrORpAeSJrBNZSNCYUY5jgwV8T1edCnisc2U8z24io1X0HB/3++wRLfF9KDLbHQSocwmZkQUS028GdQQJdn7+BlJdPwuEd5ExTcbnW5z5AP+vs9hDWdphMFZbDjIBKO0KM2QiUJLYkcrRbd4RCfEgusqjIzy9/2NCIB9xg/P5XMGKGii4mpRjnQFW/YYAWrTg+dnqEOBE9uN0LDDCBf2+TKib14sMEJDrhHwWP6+nxGHE9upcMjGXCO07cM00rfoTiZ84075+yEDBmnACcaTOUY4s9sIbQVG6CyURe8sogadyTPCyWzv74UM6CfSK1yRUw44V6fZnDu0RBwM4/a358QVtD8fvbfNdCsBEbBIO9ARn2Z1/meq1flVmtUJqQeQXTDkBhS0Q9y+dohFfnrxy5i9bWti8y8F/tPQWkivhR+l2TqfSbM6HVT0LsKUcsayLqjNSR4y8Y9lJ6PohDF7KaP3tEF0/oXvo3e32SPzLyyaYYcfCsEgfKq1a1lKeVc9Eb1cFhyZXNpJmFTSCQU7nxwyAz7NWQgxeyTRKaN2Iy9AZB7jzvNNpl1tv4gqqQ/Mxbk0a2dGSnlnPS96clmnQnRCSwckWjrglU83D5kBL+36AKI0RDftYtx5Hoy5jDvOnzTktAbOUkW6vVuXUta1Rx3lyR7BO4ngiWbKycXIS5BSdB7Kd8watPjW7BkQn3eWis4Jzotu2IFsBUNOK0Qgs1shYnvr7gnbW8YKIxmppR2PJpV2tvqK8kQUnBM9oegSJBRSxu+/BBn7DkFt9q3XgmPZSfDozmo5ytWi5zDRUfDsVpi0vYXykxa4F/nnlpaJn5ybKYxEJFk6VydZOm70FuWTi2TR44no7YSkY2Fdy7w9dqjOmTpg8auzp0JGro1PLd5RriX6thYI33YOwv9MOXFr880JHze/KIwkJJZ0rOWjnBc9QUv0gnZ1m6joWKbk18P7ua/AV9uj+xQeP/Nuzi8hecdJzdSiJfi9vOAfM25thgnILZRhm5vfEEYCJhdf+i9Z8A5FlCf4iPLYfRe120TWtUgFdGreV/Bq7nrIzl4MldnT4fj2BMKK7OnkvVdy3oef7PjLwKNcQ/TxyI/OwvjNZyEM+SHyzPD+HXFCUcdKn1G+v/coj9EQXNEmDqSAcqJrRXm4jygf/5G36OOQfzpDqP/gDIibzi4ThiPiijsT4/df6hlslEep28SdXm3ireVyn6KfJZSjXBZ83AdUdP0mFL4JxI1NoNt4+qq44XSKMKywBn4Qt/9ijS/R5SjvYzK0axBR/snQRbladCL8H5GnYeyG0zBmw+lavGdhuCC24OKKW43ySH4yJInOCd5rm9jPAiqJHqYQ3XeUy4I3gW4DFX3s/5yGMcj1yFNwz/pTS4ThgphPL/41xmud5XZFeYt3atnaTEXvJcrDBhjlStFPEY5+/xSMfu8U3PPeKRj1TuMJAcD/P+aI3tv+8EAKqNGX6Nm3McoVovce5WO5KCeCc6Lf824j4ah3KH/8zqnp/tZfiMpve5sK3gZRfUT54Apos7JNHFSUN/Ue5e8zwd9TCj5qXSPcva4B7n6b8q61DW/6W3/BtOv8kX5HeT8nQ+GDLqBNXNcyuCi/mxP9Lio63LW2Hn78Vj3c+WbdIX/rL5hyWy/crjZxvOZkqPc2sT8FVCk6E/xdn1FOiIITvonC18Od/10Pd75R1+pv/QVDbuv1v/VkSO/Vm6sK6ACjfFQvUa4UvQ7+EfkG4+t11/2tvxBxuwron25jlJPU0iCL3luU84Jr0N/6C722iQOI8rDBtom3FOUNfUd5H/S3/sK92851D1mbuGkwUa5VQBt8p5YBRLkv3vH6SZe/9RcmfnyuYOgnQ039axP/RlHuk6/X7fa3/sKErS2x47c0dw24TRyiydDdvUU5aRU50QcruCL66zrueKs+XBgOmLCp5d6wzWfzwz486x7KKB/dv8nQLRfQWxL+jZNujPxhI34IIYQQQgghhBBCCCGEIIw0/D/3yz4YG8CD8gAAAABJRU5ErkJggg==;" vertex="1" parent="1">
          <mxGeometry x="289" y="159" width="76" height="76" as="geometry" />
        </mxCell>
        <mxCell id="fFrQpYMXS9mIhHFyNszC-47" style="edgeStyle=orthogonalEdgeStyle;rounded=0;orthogonalLoop=1;jettySize=auto;html=1;entryX=1;entryY=0.75;entryDx=0;entryDy=0;" edge="1" parent="1" target="fFrQpYMXS9mIhHFyNszC-41">
          <mxGeometry relative="1" as="geometry">
            <mxPoint x="685" y="541" as="sourcePoint" />
          </mxGeometry>
        </mxCell>
        <mxCell id="fFrQpYMXS9mIhHFyNszC-48" value="Отправка обращений" style="edgeLabel;html=1;align=center;verticalAlign=middle;resizable=0;points=[];" vertex="1" connectable="0" parent="fFrQpYMXS9mIhHFyNszC-47">
          <mxGeometry x="0.0576" y="-2" relative="1" as="geometry">
            <mxPoint as="offset" />
          </mxGeometry>
        </mxCell>
        <mxCell id="fFrQpYMXS9mIhHFyNszC-52" value="СМС-шлюз" style="rounded=1;whiteSpace=wrap;html=1;fillColor=#A9C4EB;strokeColor=none;" vertex="1" parent="1">
          <mxGeometry x="589" y="148" width="101" height="122" as="geometry" />
        </mxCell>
        <mxCell id="fFrQpYMXS9mIhHFyNszC-53" style="edgeStyle=orthogonalEdgeStyle;rounded=0;orthogonalLoop=1;jettySize=auto;html=1;entryX=0;entryY=0.75;entryDx=0;entryDy=0;exitX=0.5;exitY=0;exitDx=0;exitDy=0;" edge="1" parent="1" source="fFrQpYMXS9mIhHFyNszC-52" target="fFrQpYMXS9mIhHFyNszC-12">
          <mxGeometry relative="1" as="geometry">
            <Array as="points">
              <mxPoint x="640" y="67" />
            </Array>
            <mxPoint x="479" y="144" as="sourcePoint" />
          </mxGeometry>
        </mxCell>
        <mxCell id="fFrQpYMXS9mIhHFyNszC-54" value="СМС оповещения" style="edgeLabel;html=1;align=center;verticalAlign=middle;resizable=0;points=[];" vertex="1" connectable="0" parent="fFrQpYMXS9mIhHFyNszC-53">
          <mxGeometry x="-0.632" relative="1" as="geometry">
            <mxPoint as="offset" />
          </mxGeometry>
        </mxCell>
        <mxCell id="fFrQpYMXS9mIhHFyNszC-56" value="" style="endArrow=classic;html=1;rounded=0;exitX=0;exitY=0.5;exitDx=0;exitDy=0;entryX=1;entryY=0.5;entryDx=0;entryDy=0;" edge="1" parent="1" source="fFrQpYMXS9mIhHFyNszC-12" target="fFrQpYMXS9mIhHFyNszC-5">
          <mxGeometry width="50" height="50" relative="1" as="geometry">
            <mxPoint x="780" y="380" as="sourcePoint" />
            <mxPoint x="830" y="330" as="targetPoint" />
          </mxGeometry>
        </mxCell>
        <mxCell id="fFrQpYMXS9mIhHFyNszC-57" value="Приходит в отделение банка" style="edgeLabel;html=1;align=center;verticalAlign=middle;resizable=0;points=[];" vertex="1" connectable="0" parent="fFrQpYMXS9mIhHFyNszC-56">
          <mxGeometry x="-0.0055" relative="1" as="geometry">
            <mxPoint as="offset" />
          </mxGeometry>
        </mxCell>
        <mxCell id="fFrQpYMXS9mIhHFyNszC-58" value="" style="endArrow=classic;html=1;rounded=0;exitX=1;exitY=0.25;exitDx=0;exitDy=0;" edge="1" parent="1" source="fFrQpYMXS9mIhHFyNszC-5">
          <mxGeometry width="50" height="50" relative="1" as="geometry">
            <mxPoint x="780" y="380" as="sourcePoint" />
            <mxPoint x="690" y="29" as="targetPoint" />
          </mxGeometry>
        </mxCell>
        <mxCell id="fFrQpYMXS9mIhHFyNszC-59" value="Информирует о ставках,оформляет банковские продукты" style="edgeLabel;html=1;align=center;verticalAlign=middle;resizable=0;points=[];" vertex="1" connectable="0" parent="fFrQpYMXS9mIhHFyNszC-58">
          <mxGeometry x="-0.2402" y="2" relative="1" as="geometry">
            <mxPoint as="offset" />
          </mxGeometry>
        </mxCell>
        <mxCell id="-RQ2BEiGVsNFCDUkpMSU-1" value="Оператор КЦ" style="shape=image;verticalLabelPosition=bottom;labelBackgroundColor=default;verticalAlign=top;aspect=fixed;imageAspect=0;image=data:image/png,iVBORw0KGgoAAAANSUhEUgAAAGAAAABgCAYAAADimHc4AAAACXBIWXMAAAsTAAALEwEAmpwYAAAQAElEQVR4nO1ba3RUVZa+09O9Zjm2IlC3CBBJVeUd8iStNIoyiEKIINi2gyLviPPDpd3ar5lpZzGzWkcRHwwNtgg2khAIAQlJqvKgKqlK5GEgg63TC8kDAiGBEJJUVSCIgO5Z+5xz655761YeJHQlVfWt9a2VqlTdx/fts/c+59wShBBCCCGEEEIIIYQQQgghhBBCCGEYwvrC6FH2LP0S+yrdRkeW7nNHlq7JkSU6HVki2FdxXClCJXKFCJXLKSuWMS4VwYZ8TnfN3/czYmBbNmaiI0uXbc/Sfet4XgQvZlHyBtglA5gJFctVBiwRz/v7vkYE7Ct1v3SsEm/wgldx7M0EfhR4DFjmMcDu73sb9nCs1G2QhPUIv9qbmiZojQJlGvqDv+9v2KLqBd2Umt/od/kU/wVG6XVvo8CHAdZn9dP8fZ/DDtUrxyQ4XhArJBEVBnDiVzPyJvCjwKcBzATrYhFKnhTrSubrk/19z8MG9izdK47nddf4KPZpwL8wciYMxIDSnxMDwLxQd6V4gThHCGbkPy38vf158UNfKWSoR0D5Iio+0rJQBMsT4reW+frHhGCFI0u3zRPpGl2MVw2QhNcyoI8acGCRCKU/Ywag+MgFIpjn6y6bM8fEC8EGxyrdv3uJpu5g8G+p/dTogHwWYe4YJPKfEaH0KZUBC5gBT4hgnqf7sjZd+JEQLLAvF1Ptq8SbmsKrU8cKVhM0TOhtHoDfsz4nQtnPad5HA0rUBqD4yPkiFD8+9ldCsKByhe6wJLido0d4jQkUto/S/zxCZ3FcxSKetJkilP2zCGVPMwOk6GcGWHgD5lMWzdO15z8dfocQ6LAu1U8jUc5zBeXBF8PgzGYTOIsTwFWaCBd2xsPXb5vg0IvjpRksIUY2tpPIA88yPkOLLLIqKwz+7w8maNmWAF2FieAuSwRn0WRoWG/COYC3AfNwBIhQNHfsYiHQUbFc/FAR6Ssoj7wcBs7CeLh8IBGuWJPhii0VeiqmQE/lT+Bq5X3QUZAGpz+Ih+OvGeDwSxPBvioMbEv0hPaVYVDz6iT4el0MXNqbClft95Pv4HfxGHgsPCYeuz0/FqzPjpPzP2dAcaaYJwQ6KpaLx6VVykpGR5YeOgpi4fKBJLhiTYErtjToqUiHnsr7qJiOn8I3VdPgm6oH4JvqBwmvVU9XkLxfhXyAfBa/g9/FY+Cx8Jh4bDzHuY+jWAfE8r80AjJ1jUKgw7ZUdJKczuX4+vUGFvkp0MPEv2q/D646pjLhUXQm9mcPwbXPHvbBh5gZ0zkjppJjEUM9JiRC7W/C5ej3pCDxqhDosC0Vr3sK6zKc1Y6D7rLJcuRXpnNRTyP+WrUk+gz49iDynygPzaSUXh+cQT5DPlv9EBsVD3CjQRoJydCeH09rgJx+oDBTDPx9AusS0YmdisSv3zZwOV8pvhzxMzjBH4HryMOzlDz0CPmfZIhiRHhMkNIRrQlHXproiX40oGiueFEIdFiX6M5I3YxtqQgdBQmegouFUy2+J+I9oj8K1488RniDUXpN/nd4FjXCMyJUJpCaQAtz4x+jqPgk/+uhMENfJwQ6rEvEasmAIy+PJ5FI8j52O3aW8zHtSOIfmskingp/48hsuPH5HMYMRvb6yGzZCM9ooCbQdDSNnIN0R7Y0cJckQclCPYt+PY4AqxDoOLBYt5308c+J8Nc3DYrU8w2JfinnY+TL4svCZ8DNmrlwsyZTxbmyGWiEZMLBmbQuYE3AYi7VA5aKjrwcTqKfGDBH3CoEOqyLda9Jk6jW7DhWeKXol1LPwySFqMX3CH/0cfju6Dz47hjj0XnkPdkItQmsJkipiI0CPHfdukgW/XrYP0f/mhDosD2rX0gMeE4EtyVJlftVqefwLJrnJfFReCL6fPju2BMq4nuSEZIJj7GawKWiqgcVtaBt12RqQIYeimaLTwmBjopFYiQuHVStDlOmn6pp2tH/+Wy4WZMBN49myuLXPgHf1y5QEN+TTcCRgOnIexTQOcI0OQ1ZU6HkyXFYgGH/nLGxQqBjzRrhB+XP6C7X/i6cGqCVfryiP5OlHE78/12oJG8CpqSaTK9RoJ2GUuGz1eFQOFu8ihtEQjCgfJFYc2KtSc7/DskAPv1IuV+KfrX4T8L3x39GiX+rTMDvkKLMaoEnDZFijC2pXAe++L0BCufojwmBjub88DsaciPWVv1Cd/nUxii5/fTK/3LxlXO/ZIAsPhx/itBjgsIArAW8AY941QGpHa1/LxpsWfrLeG14jUKgomm3aUtjbgQc/g8RWj6JvTUDuOiHL54i5EeB0oC5/TKgeUssVP9WD3htTXmmj4RARVOe6Sre5NG39GQtpqdfBmSoRsACbgRQ9m8E8ClIacDFvAT4/HWPAT1CoOLMblMT3uQXm/TgLknsowbMUtUALMKqGqAgqwGkJZ2nqgGzeq0BbksiHN9IDcBrFAIVTbtNe/Emv9yip2v/NuyC0jUmYdSA615zgP51QfxcgC5NzGIzYnUXRGfDeC14TWwE7BECFU15xn/zMqBCWoaQ1oC0ZsEZXq3od4o5gFYLKqcf5TwAlyO4eYANDUiUDcg3/asQqDidZ3hYNoBtwKhnwqo0pBwFnAmK2TB7TZYkMr2jXyP/e1ZF2QaNZABeoxCoABD+rjF30jt/+UjffbkcN2GSe10LkouxZEIGtxbE1oMIH+fWgqQFOboq+m0fa0Fkr7h8MuA1NeZGrMNrFIIB3WUJLA2xUUC2IPnVUHUqeky1GsqviM5VrYZyS9Ie8bnot0t7AnSPGK9FCDZ0l8WB9yi4X7EfIO+Esc0Yz34Avycg7wXI+wHypgzdouT3A+73in68FiHY4C6J/b67nI0CVgvIUxCsJfU2QdobUO6KqXfD5I0YtfhS66nM/XgNeC1CsMFdEt0ljQJFR6Q2wZOONPaFD6Hg3vvBdMar3pifygqv3HpK0e+yRHUIwQaXJbKquzQGusv4h7HSVCbQR1L4x1EUT0V4kQnv2QdmaUchvpR6Esm53aUx4LZEBd9vxpxmw6/dJdHQXRpLiqCmCdgZ4fzAMxrw2aCHfDwbhKJLzwWxB7RIv68hPqaesgRybndJFDiLjK8KwQb3vgljXZbIHo8JpB5oPJZIHlPhjOCejiObK5LgkuiS8OSBrPs1H0/Ec1Hxo8FlNl12mSeNFoIRLrNhjdsSSYToLo3TMEF6RJEZgdGMrSrhNBV/ylpMXvh0cgxv8ePIOfHcLrPx90KwAkqi/sFpNhyVTcB0FC8XZvK0nNII6WFdMm8gpiDvkx/G9RI+hSu48Z7Ix3M6zYYavAYhmNFVZJrkNBsuuRQmYHdERwM1go4IUh9IjZiiTczxNj7ik+gxMOrL4uS0g+IXGzudpREGf9//sICryDDbWWy45rKYSFF0l8RwoyHBMyI8ZuDI0KQkOo14KrwU9THk2HgOPJezyDTL3/c9rOA0R8x0mQ3dLrORpAeSJrBNZSNCYUY5jgwV8T1edCnisc2U8z24io1X0HB/3++wRLfF9KDLbHQSocwmZkQUS028GdQQJdn7+BlJdPwuEd5ExTcbnW5z5AP+vs9hDWdphMFZbDjIBKO0KM2QiUJLYkcrRbd4RCfEgusqjIzy9/2NCIB9xg/P5XMGKGii4mpRjnQFW/YYAWrTg+dnqEOBE9uN0LDDCBf2+TKib14sMEJDrhHwWP6+nxGHE9upcMjGXCO07cM00rfoTiZ84075+yEDBmnACcaTOUY4s9sIbQVG6CyURe8sogadyTPCyWzv74UM6CfSK1yRUw44V6fZnDu0RBwM4/a358QVtD8fvbfNdCsBEbBIO9ARn2Z1/meq1flVmtUJqQeQXTDkBhS0Q9y+dohFfnrxy5i9bWti8y8F/tPQWkivhR+l2TqfSbM6HVT0LsKUcsayLqjNSR4y8Y9lJ6PohDF7KaP3tEF0/oXvo3e32SPzLyyaYYcfCsEgfKq1a1lKeVc9Eb1cFhyZXNpJmFTSCQU7nxwyAz7NWQgxeyTRKaN2Iy9AZB7jzvNNpl1tv4gqqQ/Mxbk0a2dGSnlnPS96clmnQnRCSwckWjrglU83D5kBL+36AKI0RDftYtx5Hoy5jDvOnzTktAbOUkW6vVuXUta1Rx3lyR7BO4ngiWbKycXIS5BSdB7Kd8watPjW7BkQn3eWis4Jzotu2IFsBUNOK0Qgs1shYnvr7gnbW8YKIxmppR2PJpV2tvqK8kQUnBM9oegSJBRSxu+/BBn7DkFt9q3XgmPZSfDozmo5ytWi5zDRUfDsVpi0vYXykxa4F/nnlpaJn5ybKYxEJFk6VydZOm70FuWTi2TR44no7YSkY2Fdy7w9dqjOmTpg8auzp0JGro1PLd5RriX6thYI33YOwv9MOXFr880JHze/KIwkJJZ0rOWjnBc9QUv0gnZ1m6joWKbk18P7ua/AV9uj+xQeP/Nuzi8hecdJzdSiJfi9vOAfM25thgnILZRhm5vfEEYCJhdf+i9Z8A5FlCf4iPLYfRe120TWtUgFdGreV/Bq7nrIzl4MldnT4fj2BMKK7OnkvVdy3oef7PjLwKNcQ/TxyI/OwvjNZyEM+SHyzPD+HXFCUcdKn1G+v/coj9EQXNEmDqSAcqJrRXm4jygf/5G36OOQfzpDqP/gDIibzi4ThiPiijsT4/df6hlslEep28SdXm3ireVyn6KfJZSjXBZ83AdUdP0mFL4JxI1NoNt4+qq44XSKMKywBn4Qt/9ijS/R5SjvYzK0axBR/snQRbladCL8H5GnYeyG0zBmw+lavGdhuCC24OKKW43ySH4yJInOCd5rm9jPAiqJHqYQ3XeUy4I3gW4DFX3s/5yGMcj1yFNwz/pTS4ThgphPL/41xmud5XZFeYt3atnaTEXvJcrDBhjlStFPEY5+/xSMfu8U3PPeKRj1TuMJAcD/P+aI3tv+8EAKqNGX6Nm3McoVovce5WO5KCeCc6Lf824j4ah3KH/8zqnp/tZfiMpve5sK3gZRfUT54Apos7JNHFSUN/Ue5e8zwd9TCj5qXSPcva4B7n6b8q61DW/6W3/BtOv8kX5HeT8nQ+GDLqBNXNcyuCi/mxP9Lio63LW2Hn78Vj3c+WbdIX/rL5hyWy/crjZxvOZkqPc2sT8FVCk6E/xdn1FOiIITvonC18Od/10Pd75R1+pv/QVDbuv1v/VkSO/Vm6sK6ACjfFQvUa4UvQ7+EfkG4+t11/2tvxBxuwron25jlJPU0iCL3luU84Jr0N/6C722iQOI8rDBtom3FOUNfUd5H/S3/sK92851D1mbuGkwUa5VQBt8p5YBRLkv3vH6SZe/9RcmfnyuYOgnQ039axP/RlHuk6/X7fa3/sKErS2x47c0dw24TRyiydDdvUU5aRU50QcruCL66zrueKs+XBgOmLCp5d6wzWfzwz486x7KKB/dv8nQLRfQWxL+jZNujPxhI34IIYQQQgghhBBCCCGEIIw0/D/3yz4YG8CD8gAAAABJRU5ErkJggg==;" vertex="1" parent="1">
          <mxGeometry x="940" y="413" width="76" height="76" as="geometry" />
        </mxCell>
      </root>
    </mxGraphModel>
  </diagram>
</mxfile>

